<?xml version="1.0" encoding="UTF-8" standalone="no"?>
<!-- Created with Inkscape (http://www.inkscape.org/) -->

<svg
   xmlns:dc="http://purl.org/dc/elements/1.1/"
   xmlns:cc="http://creativecommons.org/ns#"
   xmlns:rdf="http://www.w3.org/1999/02/22-rdf-syntax-ns#"
   xmlns:svg="http://www.w3.org/2000/svg"
   xmlns="http://www.w3.org/2000/svg"
   xmlns:sodipodi="http://sodipodi.sourceforge.net/DTD/sodipodi-0.dtd"
   xmlns:inkscape="http://www.inkscape.org/namespaces/inkscape"
   inkscape:export-ydpi="25.4"
   inkscape:export-xdpi="25.4"
   inkscape:export-filename="C:\Users\ketchauh\Desktop\AllFiles\My Projects\FamilyTree.png"
   sodipodi:docname="female.svg"
   inkscape:version="0.92.5 (2060ec1f9f, 2020-04-08)"
   id="svg63"
   version="1.1"
   viewBox="0 0 178.55263 235"
   height="235mm"
   width="178.55263mm">
  <defs
     id="defs57" />
  <sodipodi:namedview
     id="base"
     pagecolor="#ffffff"
     bordercolor="#666666"
     borderopacity="1.0"
     inkscape:pageopacity="0.0"
     inkscape:pageshadow="2"
     inkscape:zoom="0.175"
     inkscape:cx="-127.75654"
     inkscape:cy="-1006.3556"
     inkscape:document-units="mm"
     inkscape:current-layer="layer1"
     showgrid="false"
     inkscape:window-width="1920"
     inkscape:window-height="1001"
     inkscape:window-x="-9"
     inkscape:window-y="-9"
     inkscape:window-maximized="1" />
  <metadata
     id="metadata60">
    <rdf:RDF>
      <cc:Work
         rdf:about="">
        <dc:format>image/svg+xml</dc:format>
        <dc:type
           rdf:resource="http://purl.org/dc/dcmitype/StillImage" />
        <dc:title />
      </cc:Work>
    </rdf:RDF>
  </metadata>
  <g
     inkscape:label="Layer 1"
     inkscape:groupmode="layer"
     id="layer1"
     transform="translate(505.12905,25.972609)">
    <g
       style="fill:#000000;fill-opacity:1"
       id="g4577"
       transform="matrix(0.26463964,0,0,0.26463964,-533.35287,-25.972609)"
       inkscape:export-xdpi="25.4"
       inkscape:export-ydpi="25.4">
      <g
         style="fill:#000000;fill-opacity:1"
         id="g4575">
        <path
           style="fill:#000000;fill-opacity:1"
           id="path4561"
           d="m 526.35,606.2 v 0.1 c -3.8,10.4 1.5,21.9 11.8,25.7 2.3,0.8 4.601,1.2 6.9,1.2 8.1,0 15.8,-5 18.8,-13.101 0.1,-0.3 0.2,-0.5 0.3,-0.8 3.601,-10.399 -1.8,-21.8 -12.3,-25.5 -10.5,-3.499 -21.9,2.001 -25.5,12.401 z"
           inkscape:connector-curvature="0" />
        <path
           style="fill:#000000;fill-opacity:1"
           id="path4563"
           d="m 444.45,641 h -0.899 c -11,0 -20,9 -20,20 0,11 9,20 20,20 h 1.2 c 11,-0.1 19.899,-9.1 19.899,-20.1 -0.1,-11 -9,-19.9 -20,-19.9 -0.1,0 -0.2,0 -0.2,0 z"
           inkscape:connector-curvature="0" />
        <path
           style="fill:#000000;fill-opacity:1"
           id="path4565"
           d="m 494.95,631.8 -0.8,0.3 c -10.3,4 -15.3,15.601 -11.3,25.9 3.1,7.9 10.6,12.7 18.6,12.7 2.4,0 4.9,-0.4 7.301,-1.4 l 1.1,-0.399 c 10.3,-4.101 15.2,-15.801 11.1,-26 C 516.85,632.6 505.15,627.7 494.95,631.8 Z"
           inkscape:connector-curvature="0" />
        <path
           style="fill:#000000;fill-opacity:1"
           id="path4567"
           d="m 392.85,632.2 c -10.3,-4 -21.9,1.1 -25.9,11.399 -4,10.301 1.101,21.9 11.4,25.9 0.4,0.2 0.8,0.3 1.2,0.4 2.3,0.899 4.7,1.3 7.1,1.3 8.101,0 15.7,-4.9 18.7,-12.9 3.9,-10.3 -1.3,-21.899 -11.6,-25.8 z"
           inkscape:connector-curvature="0" />
        <path
           style="fill:#000000;fill-opacity:1"
           id="path4569"
           d="m 334.65,595.5 c -10.3,4 -15.3,15.6 -11.3,25.9 l 0.3,0.699 c 3.2,7.801 10.601,12.5 18.5,12.5 2.5,0 5,-0.5 7.5,-1.5 10.2,-4.1 15.2,-15.8 11,-26 l -0.1,-0.3 c -4,-10.299 -15.6,-15.399 -25.9,-11.299 z"
           inkscape:connector-curvature="0" />
        <path
           style="fill:#000000;fill-opacity:1"
           id="path4571"
           d="m 281.85,527.9 c 44.2,39.5 100.6,61.199 160.4,61.199 57.6,0 112.199,-20.1 155.6,-57 25.1,67.601 137,62.601 137,62.601 V 296.2 C 734.85,132.6 602.25,0 438.65,0 h -3 C 297.65,0 272.751,89.6 272.751,89.6 146.75,133 142.65,281.9 142.65,281.9 V 594 c 86.2,6.9 123.8,-36.7 139.2,-66.1 z m 160.4,11.2 c -53.7,0 -102.301,-22.3 -137,-58.199 -33.2,-34.301 -53.7,-81.101 -53.7,-132.5 0,-17.4 2.399,-34.3 6.8,-50.3 27.2,-16.1 66.4,-45.1 83.8,-86.4 0,0 30,34.9 87.9,68.3 12.1,7 25.5,13.9 40.1,20.4 43.601,19.5 98,35.4 162.8,38.8 0.101,3.1 0.2,6.2 0.2,9.3 0,51.4 -20.399,98 -53.5,132.4 -34.9,35.799 -83.6,58.199 -137.4,58.199 z"
           inkscape:connector-curvature="0" />
        <path
           style="fill:#000000;fill-opacity:1"
           id="path4573"
           d="m 748.35,685 -133.1,-46.2 c -21,-7.3 -44.301,0.2 -57.2,18.3 L 443.95,818.2 329.85,657.1 c -12.9,-18.199 -36.2,-25.6 -57.2,-18.3 L 139.55,685 c -19.7,6.8 -32.9,25.4 -32.9,46.3 V 838 c 0,27.6 22.4,50 50,50 h 286.8 1.101 286.8 c 27.6,0 50,-22.4 50,-50 V 731.3 C 781.35,710.5 768.15,691.9 748.35,685 Z"
           inkscape:connector-curvature="0" />
      </g>
    </g>
  </g>
</svg>
